<svg width="44" height="37" viewBox="0 0 44 37" fill="none" xmlns="http://www.w3.org/2000/svg">
<path d="M6.62751 37C4.38026 37 2.40692 36.8576 1.35038 36.6204L0.868226 36.5129L0.644618 36.0733C-0.214873 34.3817 -0.214873 30.5267 0.644618 28.8352L0.868226 28.3955L1.35038 28.288C2.40692 28.0494 4.37886 27.9084 6.62751 27.9084C8.87337 27.9084 10.8481 28.0508 11.906 28.288L12.3868 28.3955L12.6104 28.8352C13.4685 30.5267 13.4685 34.3817 12.6104 36.0733L12.3868 36.5129L11.906 36.6204C10.8481 36.8576 8.87477 37 6.62751 37Z" fill="white" style="mix-blend-mode:plus-lighter"/>
<path d="M13.9283 0.19819L13.3008 0L12.7488 0.355904C10.7643 1.63576 6.48776 5.98616 5.24674 7.98899L4.90015 8.54727L5.10978 9.16975C5.75545 11.0833 8.57989 13.8509 10.5071 14.4608L11.1346 14.659L11.688 14.3031C12.6789 13.6639 14.2441 12.257 15.7158 10.7594C17.1874 9.26186 18.5681 7.67216 19.1901 6.67005L19.5366 6.11177L19.3256 5.48929C18.68 3.57718 15.8555 0.80811 13.9283 0.19819Z" fill="white" style="mix-blend-mode:plus-lighter"/>
<path d="M22.0005 37C19.7533 37 17.7799 36.8576 16.7234 36.6204L16.2412 36.5129L16.0176 36.0733C15.1595 34.3817 15.1595 30.5267 16.0176 28.8352L16.2412 28.3955L16.7234 28.288C17.7813 28.0494 19.7533 27.9084 22.0005 27.9084C24.2464 27.9084 26.2211 28.0508 27.2791 28.288L27.7598 28.3955L27.9834 28.8352C28.8415 30.5267 28.8415 34.3817 27.9834 36.0733L27.7598 36.5129L27.2791 36.6204C26.2211 36.8576 24.2478 37 22.0005 37Z" fill="white" style="mix-blend-mode:plus-lighter"/>
<path d="M37.3735 37C35.1263 37 33.1529 36.8576 32.0964 36.6204L31.6142 36.5129L31.3906 36.0733C30.5325 34.3817 30.5325 30.5267 31.3906 28.8352L31.6142 28.3955L32.0964 28.288C33.1543 28.0494 35.1263 27.9084 37.3735 27.9084C39.6194 27.9084 41.5941 28.0508 42.6521 28.288L43.1328 28.3955L43.3564 28.8352C44.2145 30.5267 44.2145 34.3817 43.3564 36.0733L43.1328 36.5129L42.6521 36.6204C41.5941 36.8576 39.6208 37 37.3735 37Z" fill="white" style="mix-blend-mode:plus-lighter"/>
<path d="M14.3196 25.8344C12.0724 25.8344 10.099 25.692 9.04247 25.4548L8.56032 25.3473L8.33671 24.9077C7.47862 23.2161 7.47862 19.3611 8.33671 17.6696L8.56032 17.2299L9.04247 17.1224C10.1004 16.8838 12.0724 16.7428 14.3196 16.7428C16.5655 16.7428 18.5402 16.8852 19.5981 17.1224L20.0789 17.2299L20.3025 17.6696C21.1606 19.3611 21.1606 23.2161 20.3025 24.9077L20.0789 25.3473L19.5981 25.4548C18.5402 25.692 16.5669 25.8344 14.3196 25.8344Z" fill="white" style="mix-blend-mode:plus-lighter"/>
<path d="M29.6926 25.8344C27.4454 25.8344 25.472 25.692 24.4155 25.4548L23.9333 25.3473L23.7097 24.9077C22.8516 23.2161 22.8516 19.3611 23.7097 17.6696L23.9333 17.2299L24.4155 17.1224C25.4734 16.8838 27.4454 16.7428 29.6926 16.7428C31.9385 16.7428 33.9132 16.8852 34.9712 17.1224L35.4519 17.2299L35.6755 17.6696C36.5336 19.3611 36.5336 23.2161 35.6755 24.9077L35.4519 25.3473L34.9712 25.4548C33.9132 25.692 31.9399 25.8344 29.6926 25.8344Z" fill="white" style="mix-blend-mode:plus-lighter"/>
<path d="M28.2951 14.6688C26.0478 14.6688 24.0745 14.5264 23.0179 14.2892L22.5358 14.1817L22.3122 13.7421C21.4541 12.0505 21.4541 8.19555 22.3122 6.50396L22.5358 6.06432L23.0179 5.95685C24.0759 5.71818 26.0478 5.57722 28.2951 5.57722C30.5409 5.57722 32.5157 5.71958 33.5736 5.95685L34.0544 6.06432L34.278 6.50396C35.1361 8.19555 35.1361 12.0505 34.278 13.7421L34.0544 14.1817L33.5736 14.2892C32.5157 14.5264 30.5423 14.6688 28.2951 14.6688Z" fill="white" style="mix-blend-mode:plus-lighter"/>
</svg>
