<svg width="152" height="68" viewBox="0 0 152 68" fill="none" xmlns="http://www.w3.org/2000/svg">
<path d="M29.3867 27.8333L11.8867 9.08333V27H8.88672V1.16667L26.3867 19.9167V2H29.3867V27.8333ZM43.4978 27.3333C41.7571 27.3333 40.1923 26.9444 38.8034 26.1667C37.433 25.3889 36.3497 24.3333 35.5534 23C34.7756 21.6481 34.3867 20.1481 34.3867 18.5C34.3867 16.9259 34.7663 15.5 35.5256 14.2222C36.2849 12.9259 37.3034 11.8981 38.5812 11.1389C39.8775 10.3796 41.3034 10 42.8589 10C44.396 10 45.8034 10.3704 47.0812 11.1111C48.3589 11.8333 49.3775 12.8148 50.1367 14.0556C50.896 15.2963 51.2756 16.7037 51.2756 18.2778V19.5H40.3867C39.9052 19.5 39.4145 19.4815 38.9145 19.4444C38.4145 19.4074 37.9238 19.3519 37.4423 19.2778C37.646 20.7593 38.3126 22 39.4423 23C40.5904 24 41.9515 24.5 43.5256 24.5C44.5812 24.5 45.5626 24.2593 46.4701 23.7778C47.3775 23.2963 48.1089 22.6574 48.6645 21.8611L49.4978 25.2778C48.7015 25.9259 47.7849 26.4352 46.7478 26.8056C45.7293 27.1574 44.646 27.3333 43.4978 27.3333ZM37.3589 17.25C38.3589 17.0833 39.3682 17 40.3867 17H45.9145C46.3219 17 46.7201 17.0185 47.1089 17.0556C47.5163 17.0741 47.9238 17.1019 48.3312 17.1389C48.0719 15.8426 47.4238 14.7778 46.3867 13.9444C45.3497 13.0926 44.1738 12.6667 42.8589 12.6667C41.5071 12.6667 40.3219 13.1204 39.3034 14.0278C38.2849 14.9167 37.6367 15.9907 37.3589 17.25ZM57.2244 27V12.8333H53.4466V10.3333H57.3077V4.77778H60.1411V10.3333H64.2799V12.8333H60.2244V27H57.2244ZM73.8633 27.8333L65.4466 10.3333H68.8633L72.2244 17.5556C72.5392 18.2407 72.8355 18.9074 73.1133 19.5556C73.4096 20.2037 73.6966 21.0185 73.9744 22C74.2707 21.037 74.567 20.2222 74.8633 19.5556C75.1781 18.8889 75.4744 18.2222 75.7522 17.5556L79.1133 9.55556L82.4466 17.5556C82.7244 18.2407 83.0114 18.9074 83.3077 19.5556C83.604 20.2037 83.8911 21.0185 84.1688 22C84.4466 21.0185 84.7337 20.2037 85.0299 19.5556C85.3262 18.8889 85.6318 18.2222 85.9466 17.5556L89.3633 10.3333H92.5577L84.1411 27.8333L80.7522 20.3889C80.4559 19.7222 80.1596 19.0648 79.8633 18.4167C79.5855 17.75 79.2985 16.9537 79.0022 16.0278C78.7244 16.9537 78.4374 17.75 78.1411 18.4167C77.8448 19.0648 77.5392 19.7222 77.2244 20.3889L73.8633 27.8333ZM102.344 27.3333C100.733 27.3333 99.2609 26.9444 97.9275 26.1667C96.5942 25.3889 95.5294 24.3426 94.7331 23.0278C93.9553 21.713 93.5664 20.2593 93.5664 18.6667C93.5664 17.0556 93.9553 15.6019 94.7331 14.3056C95.5294 12.9907 96.5942 11.9444 97.9275 11.1667C99.2609 10.3889 100.733 10 102.344 10C103.974 10 105.446 10.3889 106.761 11.1667C108.094 11.9444 109.15 12.9907 109.928 14.3056C110.724 15.6019 111.122 17.0556 111.122 18.6667C111.122 20.2593 110.724 21.713 109.928 23.0278C109.15 24.3426 108.094 25.3889 106.761 26.1667C105.446 26.9444 103.974 27.3333 102.344 27.3333ZM102.344 24.5C103.418 24.5 104.39 24.2407 105.261 23.7222C106.131 23.1852 106.826 22.4815 107.344 21.6111C107.863 20.7222 108.122 19.7407 108.122 18.6667C108.122 17.5926 107.863 16.6204 107.344 15.75C106.826 14.8611 106.131 14.1574 105.261 13.6389C104.39 13.1019 103.418 12.8333 102.344 12.8333C101.27 12.8333 100.298 13.1019 99.4275 13.6389C98.5571 14.1574 97.8627 14.8611 97.3442 15.75C96.8257 16.6204 96.5664 17.5926 96.5664 18.6667C96.5664 19.7407 96.8257 20.7222 97.3442 21.6111C97.8627 22.4815 98.5571 23.1852 99.4275 23.7222C100.298 24.2407 101.27 24.5 102.344 24.5ZM115.28 27V10.3333H118.058V13.3889C118.65 12.4074 119.437 11.6296 120.419 11.0556C121.4 10.463 122.567 10.1667 123.919 10.1667L124.669 13.1667C124.317 13.0556 123.91 13 123.447 13C121.891 13 120.641 13.5 119.697 14.5C118.752 15.4815 118.28 16.8889 118.28 18.7222V27H115.28ZM138.641 27L131.113 17.8333L137.308 10.3333H140.78L134.697 17.6111L142.447 27H138.641ZM127.78 27V0.333333H130.78V27H127.78ZM0.216146 67V42H3.38281V67H0.216146ZM9.86979 67V50.3333H12.6476V53.0278C13.2587 52.0463 14.0457 51.2963 15.0087 50.7778C15.9902 50.2593 17.0457 50 18.1753 50C19.3605 50 20.4531 50.2963 21.4531 50.8889C22.4716 51.463 23.2957 52.3056 23.9253 53.4167C24.555 54.5093 24.8698 55.8426 24.8698 57.4167V67H21.8698V57.8333C21.8698 56.5185 21.4716 55.3611 20.6753 54.3611C19.8976 53.3426 18.7957 52.8333 17.3698 52.8333C16.2031 52.8333 15.1568 53.2593 14.2309 54.1111C13.3235 54.9444 12.8698 56.1574 12.8698 57.75V67H9.86979ZM37.5365 67.3333C35.9068 67.3333 34.4253 66.9444 33.092 66.1667C31.7587 65.3889 30.6939 64.3426 29.8976 63.0278C29.1013 61.713 28.7031 60.2593 28.7031 58.6667C28.7031 57.0741 29.1013 55.6204 29.8976 54.3056C30.6939 52.9907 31.7587 51.9444 33.092 51.1667C34.4253 50.3889 35.9068 50 37.5365 50C38.7402 50 39.8698 50.213 40.9253 50.6389C41.9809 51.0648 42.9068 51.6296 43.7031 52.3333L42.7865 56.1111C42.3235 55.1852 41.6198 54.4074 40.6753 53.7778C39.7494 53.1481 38.6939 52.8333 37.5087 52.8333C36.4346 52.8333 35.4531 53.1019 34.5642 53.6389C33.6939 54.1574 32.9994 54.8611 32.4809 55.75C31.9624 56.6204 31.7031 57.5926 31.7031 58.6667C31.7031 59.7222 31.9624 60.6944 32.4809 61.5833C32.9994 62.4722 33.6939 63.1852 34.5642 63.7222C35.4531 64.2407 36.4346 64.5 37.5087 64.5C38.6939 64.5 39.7494 64.1944 40.6753 63.5833C41.6198 62.9722 42.3235 62.1852 42.7865 61.2222L43.7031 65C42.9068 65.7037 41.9809 66.2685 40.9253 66.6944C39.8698 67.1204 38.7402 67.3333 37.5365 67.3333ZM53.7309 67.3333C52.5642 67.3333 51.4716 67.0463 50.4531 66.4722C49.4346 65.8796 48.6105 65.0278 47.9809 63.9167C47.3513 62.8056 47.0365 61.4722 47.0365 59.9167V50.3333H50.0365V59.5C50.0365 60.8148 50.4253 61.9815 51.2031 63C51.9994 64 53.1105 64.5 54.5365 64.5C55.7031 64.5 56.7402 64.0833 57.6476 63.25C58.5735 62.3981 59.0365 61.1759 59.0365 59.5833V50.3333H62.0365V67H59.2587V64.3056C58.6476 65.287 57.8513 66.037 56.8698 66.5556C55.9068 67.0741 54.8605 67.3333 53.7309 67.3333ZM76.0087 67.2222C74.8605 67.2222 73.7865 67.0093 72.7865 66.5833C71.7865 66.1389 70.9068 65.5463 70.1476 64.8056V67H67.3698V40.3333H70.3698V52.3056C71.1105 51.6204 71.9624 51.0833 72.9253 50.6944C73.8883 50.3056 74.9161 50.1111 76.0087 50.1111C77.5457 50.1111 78.9346 50.5 80.1753 51.2778C81.4346 52.037 82.4346 53.0648 83.1753 54.3611C83.9346 55.6574 84.3142 57.0926 84.3142 58.6667C84.3142 60.2407 83.9346 61.6759 83.1753 62.9722C82.4346 64.2685 81.4346 65.3056 80.1753 66.0833C78.9346 66.8426 77.5457 67.2222 76.0087 67.2222ZM75.6198 64.5C76.6753 64.5 77.6291 64.2407 78.4809 63.7222C79.3513 63.1852 80.0365 62.4815 80.5365 61.6111C81.055 60.7222 81.3142 59.7407 81.3142 58.6667C81.3142 57.5926 81.055 56.6204 80.5365 55.75C80.0365 54.8611 79.3513 54.1574 78.4809 53.6389C77.6291 53.1019 76.6753 52.8333 75.6198 52.8333C74.5642 52.8333 73.6013 53.1019 72.7309 53.6389C71.8791 54.1574 71.1939 54.8611 70.6753 55.75C70.1753 56.6204 69.9253 57.5926 69.9253 58.6667C69.9253 59.7407 70.1753 60.7222 70.6753 61.6111C71.1939 62.4815 71.8791 63.1852 72.7309 63.7222C73.6013 64.2407 74.5642 64.5 75.6198 64.5ZM95.6024 67.2222C94.0839 67.2222 92.695 66.8426 91.4358 66.0833C90.1765 65.3056 89.1672 64.2685 88.408 62.9722C87.6672 61.6759 87.2969 60.2407 87.2969 58.6667C87.2969 57.0926 87.6672 55.6574 88.408 54.3611C89.1672 53.0648 90.1765 52.037 91.4358 51.2778C92.695 50.5 94.0839 50.1111 95.6024 50.1111C96.7506 50.1111 97.8247 50.3241 98.8247 50.75C99.8432 51.1759 100.723 51.7685 101.464 52.5278V50.3333H104.241V67H101.464V64.8056C100.723 65.5463 99.8432 66.1389 98.8247 66.5833C97.8247 67.0093 96.7506 67.2222 95.6024 67.2222ZM95.9913 64.5C97.0469 64.5 98.0006 64.2407 98.8524 63.7222C99.7228 63.1852 100.408 62.4815 100.908 61.6111C101.427 60.7222 101.686 59.7407 101.686 58.6667C101.686 57.5926 101.427 56.6204 100.908 55.75C100.408 54.8611 99.7228 54.1574 98.8524 53.6389C98.0006 53.1019 97.0469 52.8333 95.9913 52.8333C94.9358 52.8333 93.9728 53.1019 93.1024 53.6389C92.2506 54.1574 91.5654 54.8611 91.0469 55.75C90.5469 56.6204 90.2969 57.5926 90.2969 58.6667C90.2969 59.7407 90.5469 60.7222 91.0469 61.6111C91.5654 62.4815 92.2506 63.1852 93.1024 63.7222C93.9728 64.2407 94.9358 64.5 95.9913 64.5ZM111.502 67V52.8333H107.724V50.3333H111.585V44.7778H114.418V50.3333H118.557V52.8333H114.502V67H111.502ZM128.848 67.3333C127.237 67.3333 125.765 66.9444 124.431 66.1667C123.098 65.3889 122.033 64.3426 121.237 63.0278C120.459 61.713 120.07 60.2593 120.07 58.6667C120.07 57.0556 120.459 55.6019 121.237 54.3056C122.033 52.9907 123.098 51.9444 124.431 51.1667C125.765 50.3889 127.237 50 128.848 50C130.478 50 131.95 50.3889 133.265 51.1667C134.598 51.9444 135.654 52.9907 136.431 54.3056C137.228 55.6019 137.626 57.0556 137.626 58.6667C137.626 60.2593 137.228 61.713 136.431 63.0278C135.654 64.3426 134.598 65.3889 133.265 66.1667C131.95 66.9444 130.478 67.3333 128.848 67.3333ZM128.848 64.5C129.922 64.5 130.894 64.2407 131.765 63.7222C132.635 63.1852 133.33 62.4815 133.848 61.6111C134.367 60.7222 134.626 59.7407 134.626 58.6667C134.626 57.5926 134.367 56.6204 133.848 55.75C133.33 54.8611 132.635 54.1574 131.765 53.6389C130.894 53.1019 129.922 52.8333 128.848 52.8333C127.774 52.8333 126.802 53.1019 125.931 53.6389C125.061 54.1574 124.367 54.8611 123.848 55.75C123.33 56.6204 123.07 57.5926 123.07 58.6667C123.07 59.7407 123.33 60.7222 123.848 61.6111C124.367 62.4815 125.061 63.1852 125.931 63.7222C126.802 64.2407 127.774 64.5 128.848 64.5ZM141.784 67V50.3333H144.562V53.3889C145.154 52.4074 145.941 51.6296 146.923 51.0556C147.904 50.463 149.071 50.1667 150.423 50.1667L151.173 53.1667C150.821 53.0556 150.413 53 149.951 53C148.395 53 147.145 53.5 146.201 54.5C145.256 55.4815 144.784 56.8889 144.784 58.7222V67H141.784Z" fill="white"/>
</svg>
